{
  "accessors": [
    {
      "bufferView": 1,
      "componentType": 5126,
      "count": 65532,
      "max": [
        17.477500915527344,
        31.46940040588379,
        26.529800415039063
      ],
      "min": [
        -17.388500213623047,
        5.914400100708008,
        -21.696399688720703
      ],
      "type": "VEC3"
    },
    {
      "bufferView": 1,
      "byteOffset": 786384,
      "componentType": 5126,
      "count": 65532,
      "max": [
        0.9994059801101685,
        0.9999959468841553,
        0.9998799562454224
      ],
      "min": [
        -0.9998772144317627,
        -0.9999648332595825,
        -0.9998364448547363
      ],
      "type": "VEC3"
    },
    {
      "bufferView": 0,
      "componentType": 5125,
      "count": 65532,
      "type": "SCALAR"
    },
    {
      "bufferView": 1,
      "byteOffset": 1572768,
      "componentType": 5126,
      "count": 65532,
      "max": [
        14.73330020904541,
        31.416900634765625,
        26.528200149536133
      ],
      "min": [
        -9.684800148010254,
        -20.875,
        -21.987300872802734
      ],
      "type": "VEC3"
    },
    {
      "bufferView": 1,
      "byteOffset": 2359152,
      "componentType": 5126,
      "count": 65532,
      "max": [
        0.9999676942825317,
        0.9999975562095642,
        0.9999896287918091
      ],
      "min": [
        -0.9999608397483826,
        -0.999983549118042,
        -1.0
      ],
      "type": "VEC3"
    },
    {
      "bufferView": 0,
      "byteOffset": 262128,
      "componentType": 5125,
      "count": 65760,
      "type": "SCALAR"
    },
    {
      "bufferView": 1,
      "byteOffset": 3145536,
      "componentType": 5126,
      "count": 65532,
      "max": [
        17.006500244140625,
        31.481800079345703,
        25.650800704956055
      ],
      "min": [
        -9.524800300598145,
        -21.723600387573242,
        -10.741100311279297
      ],
      "type": "VEC3"
    },
    {
      "bufferView": 1,
      "byteOffset": 3931920,
      "componentType": 5126,
      "count": 65532,
      "max": [
        0.9999257922172546,
        0.9999647736549377,
        0.9998555183410645
      ],
      "min": [
        -1.0,
        -0.9999006390571594,
        -0.9999956488609314
      ],
      "type": "VEC3"
    },
    {
      "bufferView": 0,
      "byteOffset": 525168,
      "componentType": 5125,
      "count": 65532,
      "type": "SCALAR"
    },
    {
      "bufferView": 1,
      "byteOffset": 4718304,
      "componentType": 5126,
      "count": 65532,
      "max": [
        39.7515983581543,
        39.6776008605957,
        27.91200065612793
      ],
      "min": [
        -39.751800537109375,
        -39.7515983581543,
        -40.37799835205078
      ],
      "type": "VEC3"
    },
    {
      "bufferView": 1,
      "byteOffset": 5504688,
      "componentType": 5126,
      "count": 65532,
      "max": [
        0.9999191164970398,
        0.9992636442184448,
        0.9965845942497253
      ],
      "min": [
        -0.9999184012413025,
        -1.0,
        -0.9998549222946167
      ],
      "type": "VEC3"
    },
    {
      "bufferView": 0,
      "byteOffset": 787296,
      "componentType": 5125,
      "count": 65532,
      "type": "SCALAR"
    },
    {
      "bufferView": 1,
      "byteOffset": 6291072,
      "componentType": 5126,
      "count": 65532,
      "max": [
        39.7515983581543,
        36.373600006103516,
        18.496400833129883
      ],
      "min": [
        -39.577999114990234,
        -39.7515983581543,
        -40.89509963989258
      ],
      "type": "VEC3"
    },
    {
      "bufferView": 1,
      "byteOffset": 7077456,
      "componentType": 5126,
      "count": 65532,
      "max": [
        0.9999248385429382,
        0.9999240040779114,
        0.9892311096191406
      ],
      "min": [
        -0.9994893074035645,
        -0.9994418621063232,
        -0.995593786239624
      ],
      "type": "VEC3"
    },
    {
      "bufferView": 0,
      "byteOffset": 1049424,
      "componentType": 5125,
      "count": 65532,
      "type": "SCALAR"
    },
    {
      "bufferView": 1,
      "byteOffset": 7863840,
      "componentType": 5126,
      "count": 65532,
      "max": [
        39.751800537109375,
        29.24489974975586,
        12.746600151062012
      ],
      "min": [
        -37.14649963378906,
        -39.751800537109375,
        -40.98939895629883
      ],
      "type": "VEC3"
    },
    {
      "bufferView": 1,
      "byteOffset": 8650224,
      "componentType": 5126,
      "count": 65532,
      "max": [
        0.9999240636825562,
        0.9986681938171387,
        0.9997339248657227
      ],
      "min": [
        -0.9999240040779114,
        -0.9994928240776062,
        -0.9997339844703674
      ],
      "type": "VEC3"
    },
    {
      "bufferView": 0,
      "byteOffset": 1311552,
      "componentType": 5125,
      "count": 65532,
      "type": "SCALAR"
    },
    {
      "bufferView": 1,
      "byteOffset": 9436608,
      "componentType": 5126,
      "count": 65534,
      "max": [
        39.751800537109375,
        20.633899688720703,
        48.53219985961914
      ],
      "min": [
        -29.144100189208984,
        -38.04710006713867,
        -40.986000061035156
      ],
      "type": "VEC3"
    },
    {
      "bufferView": 1,
      "byteOffset": 10223016,
      "componentType": 5126,
      "count": 65534,
      "max": [
        0.9997788667678833,
        1.0,
        1.0
      ],
      "min": [
        -0.9999248385429382,
        -1.0,
        -1.0
      ],
      "type": "VEC3"
    },
    {
      "bufferView": 0,
      "byteOffset": 1573680,
      "componentType": 5125,
      "count": 67743,
      "type": "SCALAR"
    },
    {
      "bufferView": 1,
      "byteOffset": 11009424,
      "componentType": 5126,
      "count": 65533,
      "max": [
        30.13290023803711,
        28.163999557495117,
        44.03379821777344
      ],
      "min": [
        -36.89179992675781,
        -36.88240051269531,
        -40.98939895629883
      ],
      "type": "VEC3"
    },
    {
      "bufferView": 1,
      "byteOffset": 11795820,
      "componentType": 5126,
      "count": 65533,
      "max": [
        0.9999966025352478,
        0.9994893074035645,
        1.0
      ],
      "min": [
        -1.0,
        -0.9999998807907104,
        -1.0
      ],
      "type": "VEC3"
    },
    {
      "bufferView": 0,
      "byteOffset": 1844652,
      "componentType": 5125,
      "count": 68601,
      "type": "SCALAR"
    },
    {
      "bufferView": 1,
      "byteOffset": 12582216,
      "componentType": 5126,
      "count": 65532,
      "max": [
        39.751800537109375,
        20.13290023803711,
        -2.863300085067749
      ],
      "min": [
        -26.270999908447266,
        -39.751800537109375,
        -41.0
      ],
      "type": "VEC3"
    },
    {
      "bufferView": 1,
      "byteOffset": 13368600,
      "componentType": 5126,
      "count": 65532,
      "max": [
        0.9999240040779114,
        0.999924898147583,
        1.0
      ],
      "min": [
        -1.0,
        -0.9999240636825562,
        -0.9997339248657227
      ],
      "type": "VEC3"
    },
    {
      "bufferView": 0,
      "byteOffset": 2119056,
      "componentType": 5125,
      "count": 65532,
      "type": "SCALAR"
    },
    {
      "bufferView": 1,
      "byteOffset": 14154984,
      "componentType": 5126,
      "count": 65532,
      "max": [
        39.16360092163086,
        39.751800537109375,
        33.366600036621094
      ],
      "min": [
        -39.750999450683594,
        -38.667301177978516,
        -40.53990173339844
      ],
      "type": "VEC3"
    },
    {
      "bufferView": 1,
      "byteOffset": 14941368,
      "componentType": 5126,
      "count": 65532,
      "max": [
        1.0,
        0.9999191164970398,
        0.9839260578155518
      ],
      "min": [
        -0.9999183416366577,
        -0.9999183416366577,
        -0.9753043055534363
      ],
      "type": "VEC3"
    },
    {
      "bufferView": 0,
      "byteOffset": 2381184,
      "componentType": 5125,
      "count": 65532,
      "type": "SCALAR"
    },
    {
      "bufferView": 1,
      "byteOffset": 15727752,
      "componentType": 5126,
      "count": 65532,
      "max": [
        38.886600494384766,
        39.75170135498047,
        38.28929901123047
      ],
      "min": [
        -38.10390090942383,
        -32.16469955444336,
        -39.296600341796875
      ],
      "type": "VEC3"
    },
    {
      "bufferView": 1,
      "byteOffset": 16514136,
      "componentType": 5126,
      "count": 65532,
      "max": [
        0.9999184012413025,
        0.9999240636825562,
        0.9892330765724182
      ],
      "min": [
        -0.9999191164970398,
        -0.9999248385429382,
        -0.9342668652534485
      ],
      "type": "VEC3"
    },
    {
      "bufferView": 0,
      "byteOffset": 2643312,
      "componentType": 5125,
      "count": 65532,
      "type": "SCALAR"
    },
    {
      "bufferView": 1,
      "byteOffset": 17300520,
      "componentType": 5126,
      "count": 65532,
      "max": [
        37.506099700927734,
        39.751800537109375,
        40.05440139770508
      ],
      "min": [
        -39.7515983581543,
        -32.1161003112793,
        -36.52069854736328
      ],
      "type": "VEC3"
    },
    {
      "bufferView": 1,
      "byteOffset": 18086904,
      "componentType": 5126,
      "count": 65532,
      "max": [
        0.999924898147583,
        0.99952232837677,
        0.9766384363174438
      ],
      "min": [
        -0.9999240636825562,
        -0.9999191164970398,
        -0.9766913652420044
      ],
      "type": "VEC3"
    },
    {
      "bufferView": 0,
      "byteOffset": 2905440,
      "componentType": 5125,
      "count": 65532,
      "type": "SCALAR"
    },
    {
      "bufferView": 1,
      "byteOffset": 18873288,
      "componentType": 5126,
      "count": 65532,
      "max": [
        21.587299346923828,
        39.731998443603516,
        43.31999969482422
      ],
      "min": [
        -38.25920104980469,
        -18.76259994506836,
        -27.445199966430664
      ],
      "type": "VEC3"
    },
    {
      "bufferView": 1,
      "byteOffset": 19659672,
      "componentType": 5126,
      "count": 65532,
      "max": [
        0.999904453754425,
        0.9999191164970398,
        0.9890478849411011
      ],
      "min": [
        -0.9995223879814148,
        -0.9999184012413025,
        -0.996837317943573
      ],
      "type": "VEC3"
    },
    {
      "bufferView": 0,
      "byteOffset": 3167568,
      "componentType": 5125,
      "count": 65532,
      "type": "SCALAR"
    },
    {
      "bufferView": 1,
      "byteOffset": 20446056,
      "componentType": 5126,
      "count": 65533,
      "max": [
        21.82539939880371,
        38.967498779296875,
        44.0
      ],
      "min": [
        -22.6653995513916,
        -29.850500106811523,
        -0.3463999927043915
      ],
      "type": "VEC3"
    },
    {
      "bufferView": 1,
      "byteOffset": 21232452,
      "componentType": 5126,
      "count": 65533,
      "max": [
        0.99952232837677,
        1.0,
        1.0
      ],
      "min": [
        -0.9999999403953552,
        -1.0,
        -0.9968353509902954
      ],
      "type": "VEC3"
    },
    {
      "bufferView": 0,
      "byteOffset": 3429696,
      "componentType": 5125,
      "count": 65535,
      "type": "SCALAR"
    },
    {
      "bufferView": 1,
      "byteOffset": 22018848,
      "componentType": 5126,
      "count": 65532,
      "max": [
        9.782099723815918,
        27.532100677490234,
        11.952400207519531
      ],
      "min": [
        -5.907299995422363,
        -21.711000442504883,
        -6.343200206756592
      ],
      "type": "VEC3"
    },
    {
      "bufferView": 1,
      "byteOffset": 22805232,
      "componentType": 5126,
      "count": 65532,
      "max": [
        1.0,
        0.9998201727867126,
        0.9997414350509644
      ],
      "min": [
        -1.0,
        -0.9995179772377014,
        -1.0
      ],
      "type": "VEC3"
    },
    {
      "bufferView": 0,
      "byteOffset": 3691836,
      "componentType": 5125,
      "count": 65532,
      "type": "SCALAR"
    },
    {
      "bufferView": 1,
      "byteOffset": 23591616,
      "componentType": 5126,
      "count": 171,
      "max": [
        -1.0543999671936035,
        -10.750200271606445,
        2.0055999755859375
      ],
      "min": [
        -5.7118000984191895,
        -20.90239906311035,
        -4.61959981918335
      ],
      "type": "VEC3"
    },
    {
      "bufferView": 1,
      "byteOffset": 23593668,
      "componentType": 5126,
      "count": 171,
      "max": [
        0.7317668795585632,
        0.44547462463378906,
        0.16950207948684692
      ],
      "min": [
        -0.9965519309043884,
        -0.9976096749305725,
        -0.5880445241928101
      ],
      "type": "VEC3"
    },
    {
      "bufferView": 0,
      "byteOffset": 3953964,
      "componentType": 5125,
      "count": 171,
      "type": "SCALAR"
    }
  ],
  "asset": {
    "extras": {
      "author": "i.materialise (https://sketchfab.com/imaterialise)",
      "license": "CC-BY-4.0 (http://creativecommons.org/licenses/by/4.0/)",
      "source": "https://sketchfab.com/3d-models/rudolph-christmas-decoration-e08116dc3380464ea465dd87cbad7981",
      "title": "Rudolph Christmas Decoration"
    },
    "generator": "Sketchfab-12.66.0",
    "version": "2.0"
  },
  "bufferViews": [
    {
      "buffer": 0,
      "byteLength": 3954648,
      "name": "floatBufferViews",
      "target": 34963
    },
    {
      "buffer": 0,
      "byteLength": 23595720,
      "byteOffset": 3954648,
      "byteStride": 12,
      "name": "floatBufferViews",
      "target": 34962
    }
  ],
  "buffers": [
    {
      "byteLength": 27550368,
      "uri": "scene.bin"
    }
  ],
  "materials": [
    {
      "doubleSided": true,
      "name": "Scene_-_Root",
      "pbrMetallicRoughness": {
        "baseColorFactor": [
          0.5,
          0.5,
          0.5,
          1.0
        ],
        "metallicFactor": 0.0,
        "roughnessFactor": 0.6
      }
    }
  ],
  "meshes": [
    {
      "name": "Object_0",
      "primitives": [
        {
          "attributes": {
            "NORMAL": 1,
            "POSITION": 0
          },
          "indices": 2,
          "material": 0,
          "mode": 4
        }
      ]
    },
    {
      "name": "Object_1",
      "primitives": [
        {
          "attributes": {
            "NORMAL": 4,
            "POSITION": 3
          },
          "indices": 5,
          "material": 0,
          "mode": 4
        }
      ]
    },
    {
      "name": "Object_2",
      "primitives": [
        {
          "attributes": {
            "NORMAL": 7,
            "POSITION": 6
          },
          "indices": 8,
          "material": 0,
          "mode": 4
        }
      ]
    },
    {
      "name": "Object_3",
      "primitives": [
        {
          "attributes": {
            "NORMAL": 10,
            "POSITION": 9
          },
          "indices": 11,
          "material": 0,
          "mode": 4
        }
      ]
    },
    {
      "name": "Object_4",
      "primitives": [
        {
          "attributes": {
            "NORMAL": 13,
            "POSITION": 12
          },
          "indices": 14,
          "material": 0,
          "mode": 4
        }
      ]
    },
    {
      "name": "Object_5",
      "primitives": [
        {
          "attributes": {
            "NORMAL": 16,
            "POSITION": 15
          },
          "indices": 17,
          "material": 0,
          "mode": 4
        }
      ]
    },
    {
      "name": "Object_6",
      "primitives": [
        {
          "attributes": {
            "NORMAL": 19,
            "POSITION": 18
          },
          "indices": 20,
          "material": 0,
          "mode": 4
        }
      ]
    },
    {
      "name": "Object_7",
      "primitives": [
        {
          "attributes": {
            "NORMAL": 22,
            "POSITION": 21
          },
          "indices": 23,
          "material": 0,
          "mode": 4
        }
      ]
    },
    {
      "name": "Object_8",
      "primitives": [
        {
          "attributes": {
            "NORMAL": 25,
            "POSITION": 24
          },
          "indices": 26,
          "material": 0,
          "mode": 4
        }
      ]
    },
    {
      "name": "Object_9",
      "primitives": [
        {
          "attributes": {
            "NORMAL": 28,
            "POSITION": 27
          },
          "indices": 29,
          "material": 0,
          "mode": 4
        }
      ]
    },
    {
      "name": "Object_10",
      "primitives": [
        {
          "attributes": {
            "NORMAL": 31,
            "POSITION": 30
          },
          "indices": 32,
          "material": 0,
          "mode": 4
        }
      ]
    },
    {
      "name": "Object_11",
      "primitives": [
        {
          "attributes": {
            "NORMAL": 34,
            "POSITION": 33
          },
          "indices": 35,
          "material": 0,
          "mode": 4
        }
      ]
    },
    {
      "name": "Object_12",
      "primitives": [
        {
          "attributes": {
            "NORMAL": 37,
            "POSITION": 36
          },
          "indices": 38,
          "material": 0,
          "mode": 4
        }
      ]
    },
    {
      "name": "Object_13",
      "primitives": [
        {
          "attributes": {
            "NORMAL": 40,
            "POSITION": 39
          },
          "indices": 41,
          "material": 0,
          "mode": 4
        }
      ]
    },
    {
      "name": "Object_14",
      "primitives": [
        {
          "attributes": {
            "NORMAL": 43,
            "POSITION": 42
          },
          "indices": 44,
          "material": 0,
          "mode": 4
        }
      ]
    },
    {
      "name": "Object_15",
      "primitives": [
        {
          "attributes": {
            "NORMAL": 46,
            "POSITION": 45
          },
          "indices": 47,
          "material": 0,
          "mode": 4
        }
      ]
    }
  ],
  "nodes": [
    {
      "children": [
        1
      ],
      "matrix": [
        1.0,
        0.0,
        0.0,
        0.0,
        0.0,
        2.220446049250313e-16,
        -1.0,
        0.0,
        0.0,
        1.0,
        2.220446049250313e-16,
        0.0,
        0.0,
        0.0,
        0.0,
        1.0
      ],
      "name": "Sketchfab_model"
    },
    {
      "children": [
        2,
        3,
        4,
        5,
        6,
        7,
        8,
        9,
        10,
        11,
        12,
        13,
        14,
        15,
        16,
        17
      ],
      "name": "d727d4c6b47346dfbcec19286d76fe68.stl.cleaner"
    },
    {
      "mesh": 0,
      "name": "Object_2"
    },
    {
      "mesh": 1,
      "name": "Object_3"
    },
    {
      "mesh": 2,
      "name": "Object_4"
    },
    {
      "mesh": 3,
      "name": "Object_5"
    },
    {
      "mesh": 4,
      "name": "Object_6"
    },
    {
      "mesh": 5,
      "name": "Object_7"
    },
    {
      "mesh": 6,
      "name": "Object_8"
    },
    {
      "mesh": 7,
      "name": "Object_9"
    },
    {
      "mesh": 8,
      "name": "Object_10"
    },
    {
      "mesh": 9,
      "name": "Object_11"
    },
    {
      "mesh": 10,
      "name": "Object_12"
    },
    {
      "mesh": 11,
      "name": "Object_13"
    },
    {
      "mesh": 12,
      "name": "Object_14"
    },
    {
      "mesh": 13,
      "name": "Object_15"
    },
    {
      "mesh": 14,
      "name": "Object_16"
    },
    {
      "mesh": 15,
      "name": "Object_17"
    }
  ],
  "scene": 0,
  "scenes": [
    {
      "name": "Sketchfab_Scene",
      "nodes": [
        0
      ]
    }
  ]
}
